# xmcd
#
# Track frame offsets:
#	150
#	25592
#	42532
#	69692
#	88702
#	108240
#	122745
#	144182
#	163932
#	179220
#	205762
#	236390
#	259137
#
# Disc length: 3575 seconds
#
# Revision: 6
# Processed by: cddbd v1.5.2PL0 Copyright (c) Steve Scherf et al.
# Submitted via: EasyCDDAExtractor 15.3.0.1
#
DISCID=b70df50d
DTITLE=Various Artist - VH1 Divas Live 99
DYEAR=1999
DGENRE=Pop
TTITLE0=Tina Turner - The Best
TTITLE1=Tina Turner and Elton John - The Bitch Is Back
TTITLE2=Tina Turner, Elton John and Cher - Proud Mary
TTITLE3=Cher - If I Could Turn Back Time
TTITLE4=Leann Rimes - How Do I Live
TTITLE5=Elton John - I'm Still Standing
TTITLE6=Brandy - Have You Ever, Almost Doesn't Count
TTITLE7=Brandy and Faith Hill - (Everything I Do) I Do It For You
TTITLE8=Faith Hill - This Kiss
TTITLE9=Whitney Houston and Mary J. Blige - Ain't No Way
TTITLE10=Whitney Houston - I Will Always Love You
TTITLE11=Whitney Houston and Chaka Khan - I'm Every Woman
TTITLE12=Whitney Houston, Chaka Khan, Faith Hill, Brandy, Leann Rimes and Mary J
TTITLE12=Blige - I'm Every Woman (Reprise)
EXTD=
EXTT0=
EXTT1=
EXTT2=
EXTT3=
EXTT4=
EXTT5=
EXTT6=
EXTT7=
EXTT8=
EXTT9=
EXTT10=
EXTT11=
EXTT12=
PLAYORDER=
